<svg width="24" height="24" viewBox="0 0 24 24" fill="none" xmlns="http://www.w3.org/2000/svg">
    <path d="M6 4h12v12H6V4zM6 16h4v4H6v-4zM14 16h4v4h-4v-4z" fill="#fff"/>
    <path d="M8 2h2v2H8V2zM16 2h-2v2h2V2zM10 2h2v2h-2V2zM14 2h-2v2h2V2zM6 2h2v2H6V2zM18 2h-2v2h2V2zM4 4h2v2H4V4zM20 4h-2v2h2V4zM4 6h2v2H4V6zM20 6h-2v2h2V6zM4 8h2v2H4V8zM20 8h-2v2h2V8zM4 10h2v2H4v-2zM20 10h-2v2h2v-2zM4 12h2v2H4v-2zM20 12h-2v2h2v-2zM4 14h2v2H4v-2zM20 14h-2v2h2v-2zM4 16h2v2H4v-2zM20 16h-2v2h2v-2zM4 18h2v2H4v-2zM20 18h-2v2h2v-2zM4 20h2v2H4v-2zM20 20h-2v2h2v-2zM8 18h2v2H8v-2zM16 18h-2v2h2v-2zM6 20h2v2H6v-2zM18 20h-2v2h2v-2zM10 16h2v2h-2v-2zM14 16h-2v2h2v-2z" fill="#90A4AE"/>
    <path d="M6 4h2v16H6V4zM8 4h4v2H8V4zM8 6h2v2H8V6zM12 14h2v2h-2v-2z" fill="#CFD8DB"/>
</svg>
