<svg width="24" height="24" viewBox="0 0 24 24" fill="none" xmlns="http://www.w3.org/2000/svg">
<path d="M6 4H18V16H6V4Z" fill="#FFAA8A"/>
<path d="M6 16H10V20H6V16Z" fill="#FFAA8A"/>
<path d="M14 16H18V20H14V16Z" fill="#FFAA8A"/>
<path d="M8 2H10V4H8V2Z" fill="#37474F"/>
<path d="M16 2H14V4H16V2Z" fill="#37474F"/>
<path d="M10 2H12V4H10V2Z" fill="#37474F"/>
<path d="M14 2H12V4H14V2Z" fill="#37474F"/>
<path d="M6 2H8V4H6V2Z" fill="#37474F"/>
<path d="M18 2H16V4H18V2Z" fill="#37474F"/>
<path d="M4 4H6V6H4V4Z" fill="#37474F"/>
<path d="M20 4H18V6H20V4Z" fill="#37474F"/>
<path d="M4 6H6V8H4V6Z" fill="#37474F"/>
<path d="M20 6H18V8H20V6Z" fill="#37474F"/>
<path d="M4 8H6V10H4V8Z" fill="#37474F"/>
<path d="M20 8H18V10H20V8Z" fill="#37474F"/>
<path d="M4 10H6V12H4V10Z" fill="#37474F"/>
<path d="M20 10H18V12H20V10Z" fill="#37474F"/>
<path d="M4 12H6V14H4V12Z" fill="#37474F"/>
<path d="M20 12H18V14H20V12Z" fill="#37474F"/>
<path d="M4 14H6V16H4V14Z" fill="#37474F"/>
<path d="M20 14H18V16H20V14Z" fill="#37474F"/>
<path d="M4 16H6V18H4V16Z" fill="#37474F"/>
<path d="M20 16H18V18H20V16Z" fill="#37474F"/>
<path d="M4 18H6V20H4V18Z" fill="#37474F"/>
<path d="M20 18H18V20H20V18Z" fill="#37474F"/>
<path d="M4 20H6V22H4V20Z" fill="#37474F"/>
<path d="M20 20H18V22H20V20Z" fill="#37474F"/>
<path d="M8 18H10V20H8V18Z" fill="#37474F"/>
<path d="M16 18H14V20H16V18Z" fill="#37474F"/>
<path d="M6 20H8V22H6V20Z" fill="#37474F"/>
<path d="M18 20H16V22H18V20Z" fill="#37474F"/>
<path d="M10 16H12V18H10V16Z" fill="#37474F"/>
<path d="M14 16H12V18H14V16Z" fill="#37474F"/>
<path d="M6 4H8V20H6V4Z" fill="#FFCBB8"/>
<path d="M8 4H12V6H8V4Z" fill="#FFCBB8"/>
<path d="M8 6H10V8H8V6Z" fill="#FFCBB8"/>
<path d="M6 4H8V6H6V4Z" fill="white"/>
<path d="M6 6H8V8H6V6Z" fill="white"/>
<path d="M8 4H10V6H8V4Z" fill="white"/>
<path d="M16 4H18V20H16V4Z" fill="#FF5601"/>
<path d="M12 14H14V16H12V14Z" fill="#FF5601"/>
<path d="M14 16H16V18H14V16Z" fill="#FF5601"/>
</svg>
