<svg width="24" height="24" viewBox="0 0 24 24" fill="none" xmlns="http://www.w3.org/2000/svg">
<path d="M5 11H7V13H5V11Z" fill="#FF5601"/>
<path d="M5 13H7V15H5V13Z" fill="#FF5601"/>
<path d="M7 13H9V15H7V13Z" fill="#FF5601"/>
<path d="M7 15H9V17H7V15Z" fill="#FF5601"/>
<path d="M9 15H11V17H9V15Z" fill="#FF5601"/>
<path d="M9 17H11V19H9V17Z" fill="#FF5601"/>
<path d="M11 15H13V17H11V15Z" fill="#FF5601"/>
<path d="M11 13H13V15H11V13Z" fill="#FF5601"/>
<path d="M13 13H15V15H13V13Z" fill="#FF5601"/>
<path d="M13 11H15V13H13V11Z" fill="#FF5601"/>
<path d="M15 11H17V13H15V11Z" fill="#FF5601"/>
<path d="M15 9H17V11H15V9Z" fill="#FF5601"/>
<path d="M3 11H5V13H3V11Z" fill="#FF5601"/>
<path d="M3 9H5V11H3V9Z" fill="#FF5601"/>
<path d="M17 9H19V11H17V9Z" fill="#FF5601"/>
<path d="M17 7H19V9H17V7Z" fill="#FF5601"/>
<path d="M19 7H21V9H19V7Z" fill="#FF5601"/>
<path d="M19 5H21V7H19V5Z" fill="#FF5601"/>
</svg>
