<svg width="24" height="24" viewBox="0 0 24 24" fill="none" xmlns="http://www.w3.org/2000/svg">
<rect x="4" y="5" width="2" height="2" fill="#78909C"/>
<rect width="2" height="2" transform="matrix(1 0 0 -1 4 19)" fill="#78909C"/>
<rect width="2" height="2" transform="matrix(-1 0 0 1 20 5)" fill="#78909C"/>
<rect x="20" y="19" width="2" height="2" transform="rotate(180 20 19)" fill="#78909C"/>
<rect x="6" y="7" width="2" height="2" fill="#78909C"/>
<rect width="2" height="2" transform="matrix(1 0 0 -1 6 17)" fill="#78909C"/>
<rect width="2" height="2" transform="matrix(-1 0 0 1 18 7)" fill="#78909C"/>
<rect x="18" y="17" width="2" height="2" transform="rotate(180 18 17)" fill="#78909C"/>
<rect x="8" y="9" width="2" height="2" fill="#78909C"/>
<rect width="2" height="2" transform="matrix(1 0 0 -1 8 15)" fill="#78909C"/>
<rect width="2" height="2" transform="matrix(-1 0 0 1 16 9)" fill="#78909C"/>
<rect x="16" y="15" width="2" height="2" transform="rotate(180 16 15)" fill="#78909C"/>
<rect x="6" y="5" width="2" height="2" fill="#78909C"/>
<rect width="2" height="2" transform="matrix(1 0 0 -1 6 19)" fill="#78909C"/>
<rect width="2" height="2" transform="matrix(-1 0 0 1 18 5)" fill="#78909C"/>
<rect x="18" y="19" width="2" height="2" transform="rotate(180 18 19)" fill="#78909C"/>
<rect x="8" y="7" width="2" height="2" fill="#78909C"/>
<rect width="2" height="2" transform="matrix(1 0 0 -1 8 17)" fill="#78909C"/>
<rect width="2" height="2" transform="matrix(-1 0 0 1 16 7)" fill="#78909C"/>
<rect x="16" y="17" width="2" height="2" transform="rotate(180 16 17)" fill="#78909C"/>
<rect x="10" y="9" width="2" height="2" fill="#78909C"/>
<rect width="2" height="2" transform="matrix(1 0 0 -1 10 15)" fill="#78909C"/>
<rect width="2" height="2" transform="matrix(-1 0 0 1 14 9)" fill="#78909C"/>
<rect x="10" y="11" width="2" height="2" fill="#78909C"/>
<rect width="2" height="2" transform="matrix(-1 0 0 1 14 11)" fill="#78909C"/>
<rect x="14" y="15" width="2" height="2" transform="rotate(180 14 15)" fill="#78909C"/>
</svg>
